<mxfile host="app.diagrams.net" agent="Mozilla/5.0 (Macintosh; Intel Mac OS X 10_15_7) AppleWebKit/537.36 (KHTML, like Gecko) Chrome/126.0.0.0 Safari/537.36" version="24.7.6">
  <diagram name="Page-1" id="eadt70XxtRCaXFdc0J1o">
    <mxGraphModel dx="1393" dy="866" grid="1" gridSize="10" guides="1" tooltips="1" connect="1" arrows="1" fold="1" page="1" pageScale="1" pageWidth="827" pageHeight="1169" math="0" shadow="0">
      <root>
        <mxCell id="0" />
        <mxCell id="1" parent="0" />
        <mxCell id="MqhoSPaMfqONEa-T_K4_-2" value="" style="shape=umlLifeline;perimeter=lifelinePerimeter;whiteSpace=wrap;html=1;container=1;dropTarget=0;collapsible=0;recursiveResize=0;outlineConnect=0;portConstraint=eastwest;newEdgeStyle={&quot;curved&quot;:0,&quot;rounded&quot;:0};participant=umlActor;" vertex="1" parent="1">
          <mxGeometry x="40" y="290" width="20" height="590" as="geometry" />
        </mxCell>
        <mxCell id="MqhoSPaMfqONEa-T_K4_-14" value="" style="html=1;points=[[0,0,0,0,5],[0,1,0,0,-5],[1,0,0,0,5],[1,1,0,0,-5]];perimeter=orthogonalPerimeter;outlineConnect=0;targetShapes=umlLifeline;portConstraint=eastwest;newEdgeStyle={&quot;curved&quot;:0,&quot;rounded&quot;:0};" vertex="1" parent="MqhoSPaMfqONEa-T_K4_-2">
          <mxGeometry x="5" y="80" width="10" height="430" as="geometry" />
        </mxCell>
        <mxCell id="MqhoSPaMfqONEa-T_K4_-3" value="Gateway" style="shape=umlLifeline;perimeter=lifelinePerimeter;whiteSpace=wrap;html=1;container=1;dropTarget=0;collapsible=0;recursiveResize=0;outlineConnect=0;portConstraint=eastwest;newEdgeStyle={&quot;curved&quot;:0,&quot;rounded&quot;:0};" vertex="1" parent="1">
          <mxGeometry x="140" y="290" width="100" height="620" as="geometry" />
        </mxCell>
        <mxCell id="MqhoSPaMfqONEa-T_K4_-23" value="" style="html=1;points=[[0,0,0,0,5],[0,1,0,0,-5],[1,0,0,0,5],[1,1,0,0,-5]];perimeter=orthogonalPerimeter;outlineConnect=0;targetShapes=umlLifeline;portConstraint=eastwest;newEdgeStyle={&quot;curved&quot;:0,&quot;rounded&quot;:0};" vertex="1" parent="MqhoSPaMfqONEa-T_K4_-3">
          <mxGeometry x="45" y="80" width="10" height="80" as="geometry" />
        </mxCell>
        <mxCell id="MqhoSPaMfqONEa-T_K4_-38" value="" style="html=1;points=[[0,0,0,0,5],[0,1,0,0,-5],[1,0,0,0,5],[1,1,0,0,-5]];perimeter=orthogonalPerimeter;outlineConnect=0;targetShapes=umlLifeline;portConstraint=eastwest;newEdgeStyle={&quot;curved&quot;:0,&quot;rounded&quot;:0};" vertex="1" parent="MqhoSPaMfqONEa-T_K4_-3">
          <mxGeometry x="45" y="250" width="10" height="250" as="geometry" />
        </mxCell>
        <mxCell id="MqhoSPaMfqONEa-T_K4_-47" value="" style="html=1;points=[[0,0,0,0,5],[0,1,0,0,-5],[1,0,0,0,5],[1,1,0,0,-5]];perimeter=orthogonalPerimeter;outlineConnect=0;targetShapes=umlLifeline;portConstraint=eastwest;newEdgeStyle={&quot;curved&quot;:0,&quot;rounded&quot;:0};" vertex="1" parent="MqhoSPaMfqONEa-T_K4_-3">
          <mxGeometry x="50" y="355" width="10" height="40" as="geometry" />
        </mxCell>
        <mxCell id="MqhoSPaMfqONEa-T_K4_-48" value="set user info&amp;nbsp;&lt;br&gt;in header" style="html=1;align=left;spacingLeft=2;endArrow=block;rounded=0;edgeStyle=orthogonalEdgeStyle;curved=0;rounded=0;" edge="1" target="MqhoSPaMfqONEa-T_K4_-47" parent="MqhoSPaMfqONEa-T_K4_-3">
          <mxGeometry relative="1" as="geometry">
            <mxPoint x="55" y="335" as="sourcePoint" />
            <Array as="points">
              <mxPoint x="85" y="365" />
            </Array>
          </mxGeometry>
        </mxCell>
        <mxCell id="MqhoSPaMfqONEa-T_K4_-4" value="Auth Service" style="shape=umlLifeline;perimeter=lifelinePerimeter;whiteSpace=wrap;html=1;container=1;dropTarget=0;collapsible=0;recursiveResize=0;outlineConnect=0;portConstraint=eastwest;newEdgeStyle={&quot;curved&quot;:0,&quot;rounded&quot;:0};" vertex="1" parent="1">
          <mxGeometry x="300" y="290" width="100" height="620" as="geometry" />
        </mxCell>
        <mxCell id="MqhoSPaMfqONEa-T_K4_-25" value="" style="html=1;points=[[0,0,0,0,5],[0,1,0,0,-5],[1,0,0,0,5],[1,1,0,0,-5]];perimeter=orthogonalPerimeter;outlineConnect=0;targetShapes=umlLifeline;portConstraint=eastwest;newEdgeStyle={&quot;curved&quot;:0,&quot;rounded&quot;:0};" vertex="1" parent="MqhoSPaMfqONEa-T_K4_-4">
          <mxGeometry x="45" y="80" width="10" height="150" as="geometry" />
        </mxCell>
        <mxCell id="MqhoSPaMfqONEa-T_K4_-35" value="" style="html=1;points=[[0,0,0,0,5],[0,1,0,0,-5],[1,0,0,0,5],[1,1,0,0,-5]];perimeter=orthogonalPerimeter;outlineConnect=0;targetShapes=umlLifeline;portConstraint=eastwest;newEdgeStyle={&quot;curved&quot;:0,&quot;rounded&quot;:0};" vertex="1" parent="MqhoSPaMfqONEa-T_K4_-4">
          <mxGeometry x="45" y="180" width="10" height="40" as="geometry" />
        </mxCell>
        <mxCell id="MqhoSPaMfqONEa-T_K4_-36" value="generate token" style="html=1;align=left;spacingLeft=2;endArrow=block;rounded=0;edgeStyle=orthogonalEdgeStyle;curved=0;rounded=0;" edge="1" target="MqhoSPaMfqONEa-T_K4_-35" parent="MqhoSPaMfqONEa-T_K4_-4">
          <mxGeometry relative="1" as="geometry">
            <mxPoint x="60" y="160" as="sourcePoint" />
            <Array as="points">
              <mxPoint x="80" y="190" />
            </Array>
          </mxGeometry>
        </mxCell>
        <mxCell id="MqhoSPaMfqONEa-T_K4_-41" value="" style="html=1;points=[[0,0,0,0,5],[0,1,0,0,-5],[1,0,0,0,5],[1,1,0,0,-5]];perimeter=orthogonalPerimeter;outlineConnect=0;targetShapes=umlLifeline;portConstraint=eastwest;newEdgeStyle={&quot;curved&quot;:0,&quot;rounded&quot;:0};" vertex="1" parent="MqhoSPaMfqONEa-T_K4_-4">
          <mxGeometry x="45" y="270" width="10" height="80" as="geometry" />
        </mxCell>
        <mxCell id="MqhoSPaMfqONEa-T_K4_-5" value="Task Service" style="shape=umlLifeline;perimeter=lifelinePerimeter;whiteSpace=wrap;html=1;container=1;dropTarget=0;collapsible=0;recursiveResize=0;outlineConnect=0;portConstraint=eastwest;newEdgeStyle={&quot;curved&quot;:0,&quot;rounded&quot;:0};" vertex="1" parent="1">
          <mxGeometry x="460" y="290" width="100" height="570" as="geometry" />
        </mxCell>
        <mxCell id="MqhoSPaMfqONEa-T_K4_-49" value="" style="html=1;points=[[0,0,0,0,5],[0,1,0,0,-5],[1,0,0,0,5],[1,1,0,0,-5]];perimeter=orthogonalPerimeter;outlineConnect=0;targetShapes=umlLifeline;portConstraint=eastwest;newEdgeStyle={&quot;curved&quot;:0,&quot;rounded&quot;:0};" vertex="1" parent="MqhoSPaMfqONEa-T_K4_-5">
          <mxGeometry x="50" y="410" width="10" height="140" as="geometry" />
        </mxCell>
        <mxCell id="MqhoSPaMfqONEa-T_K4_-6" value="DB" style="shape=umlLifeline;perimeter=lifelinePerimeter;whiteSpace=wrap;html=1;container=1;dropTarget=0;collapsible=0;recursiveResize=0;outlineConnect=0;portConstraint=eastwest;newEdgeStyle={&quot;curved&quot;:0,&quot;rounded&quot;:0};" vertex="1" parent="1">
          <mxGeometry x="610" y="290" width="100" height="630" as="geometry" />
        </mxCell>
        <mxCell id="MqhoSPaMfqONEa-T_K4_-32" value="" style="html=1;points=[[0,0,0,0,5],[0,1,0,0,-5],[1,0,0,0,5],[1,1,0,0,-5]];perimeter=orthogonalPerimeter;outlineConnect=0;targetShapes=umlLifeline;portConstraint=eastwest;newEdgeStyle={&quot;curved&quot;:0,&quot;rounded&quot;:0};" vertex="1" parent="MqhoSPaMfqONEa-T_K4_-6">
          <mxGeometry x="45" y="80" width="10" height="80" as="geometry" />
        </mxCell>
        <mxCell id="MqhoSPaMfqONEa-T_K4_-56" value="" style="html=1;points=[[0,0,0,0,5],[0,1,0,0,-5],[1,0,0,0,5],[1,1,0,0,-5]];perimeter=orthogonalPerimeter;outlineConnect=0;targetShapes=umlLifeline;portConstraint=eastwest;newEdgeStyle={&quot;curved&quot;:0,&quot;rounded&quot;:0};" vertex="1" parent="MqhoSPaMfqONEa-T_K4_-6">
          <mxGeometry x="45" y="420" width="10" height="70" as="geometry" />
        </mxCell>
        <mxCell id="MqhoSPaMfqONEa-T_K4_-10" value="Notification Service" style="shape=umlLifeline;perimeter=lifelinePerimeter;whiteSpace=wrap;html=1;container=1;dropTarget=0;collapsible=0;recursiveResize=0;outlineConnect=0;portConstraint=eastwest;newEdgeStyle={&quot;curved&quot;:0,&quot;rounded&quot;:0};" vertex="1" parent="1">
          <mxGeometry x="760" y="290" width="100" height="630" as="geometry" />
        </mxCell>
        <mxCell id="MqhoSPaMfqONEa-T_K4_-62" value="" style="html=1;points=[[0,0,0,0,5],[0,1,0,0,-5],[1,0,0,0,5],[1,1,0,0,-5]];perimeter=orthogonalPerimeter;outlineConnect=0;targetShapes=umlLifeline;portConstraint=eastwest;newEdgeStyle={&quot;curved&quot;:0,&quot;rounded&quot;:0};" vertex="1" parent="MqhoSPaMfqONEa-T_K4_-10">
          <mxGeometry x="45" y="510" width="10" height="80" as="geometry" />
        </mxCell>
        <mxCell id="MqhoSPaMfqONEa-T_K4_-64" value="" style="html=1;points=[[0,0,0,0,5],[0,1,0,0,-5],[1,0,0,0,5],[1,1,0,0,-5]];perimeter=orthogonalPerimeter;outlineConnect=0;targetShapes=umlLifeline;portConstraint=eastwest;newEdgeStyle={&quot;curved&quot;:0,&quot;rounded&quot;:0};" vertex="1" parent="MqhoSPaMfqONEa-T_K4_-10">
          <mxGeometry x="50" y="540" width="10" height="40" as="geometry" />
        </mxCell>
        <mxCell id="MqhoSPaMfqONEa-T_K4_-65" value="send email" style="html=1;align=left;spacingLeft=2;endArrow=block;rounded=0;edgeStyle=orthogonalEdgeStyle;curved=0;rounded=0;" edge="1" target="MqhoSPaMfqONEa-T_K4_-64" parent="MqhoSPaMfqONEa-T_K4_-10">
          <mxGeometry relative="1" as="geometry">
            <mxPoint x="55" y="520" as="sourcePoint" />
            <Array as="points">
              <mxPoint x="85" y="550" />
            </Array>
          </mxGeometry>
        </mxCell>
        <mxCell id="MqhoSPaMfqONEa-T_K4_-21" value="&lt;font style=&quot;font-size: 10px;&quot;&gt;/login&lt;br&gt;{username, password}&lt;/font&gt;" style="text;html=1;align=center;verticalAlign=middle;resizable=0;points=[];autosize=1;strokeColor=none;fillColor=none;" vertex="1" parent="1">
          <mxGeometry x="60" y="370" width="120" height="40" as="geometry" />
        </mxCell>
        <mxCell id="MqhoSPaMfqONEa-T_K4_-24" value="" style="html=1;verticalAlign=bottom;startArrow=oval;endArrow=block;startSize=8;curved=0;rounded=0;entryX=0;entryY=0;entryDx=0;entryDy=5;" edge="1" target="MqhoSPaMfqONEa-T_K4_-23" parent="1">
          <mxGeometry relative="1" as="geometry">
            <mxPoint x="60" y="375" as="sourcePoint" />
          </mxGeometry>
        </mxCell>
        <mxCell id="MqhoSPaMfqONEa-T_K4_-26" value="dispatch" style="html=1;verticalAlign=bottom;endArrow=block;curved=0;rounded=0;entryX=0;entryY=0;entryDx=0;entryDy=5;" edge="1" target="MqhoSPaMfqONEa-T_K4_-25" parent="1">
          <mxGeometry relative="1" as="geometry">
            <mxPoint x="200" y="375" as="sourcePoint" />
          </mxGeometry>
        </mxCell>
        <mxCell id="MqhoSPaMfqONEa-T_K4_-33" value="check user exists" style="html=1;verticalAlign=bottom;startArrow=oval;endArrow=block;startSize=8;curved=0;rounded=0;entryX=0;entryY=0;entryDx=0;entryDy=5;" edge="1" target="MqhoSPaMfqONEa-T_K4_-32" parent="1">
          <mxGeometry relative="1" as="geometry">
            <mxPoint x="360" y="375" as="sourcePoint" />
          </mxGeometry>
        </mxCell>
        <mxCell id="MqhoSPaMfqONEa-T_K4_-34" value="user found" style="html=1;verticalAlign=bottom;endArrow=open;dashed=1;endSize=8;curved=0;rounded=0;" edge="1" parent="1">
          <mxGeometry relative="1" as="geometry">
            <mxPoint x="650" y="410" as="sourcePoint" />
            <mxPoint x="360" y="410" as="targetPoint" />
          </mxGeometry>
        </mxCell>
        <mxCell id="MqhoSPaMfqONEa-T_K4_-37" value="token return" style="html=1;verticalAlign=bottom;endArrow=open;dashed=1;endSize=8;curved=0;rounded=0;" edge="1" parent="1">
          <mxGeometry relative="1" as="geometry">
            <mxPoint x="340" y="490" as="sourcePoint" />
            <mxPoint x="60" y="490" as="targetPoint" />
          </mxGeometry>
        </mxCell>
        <mxCell id="MqhoSPaMfqONEa-T_K4_-39" value="/task/1" style="html=1;verticalAlign=bottom;startArrow=oval;endArrow=block;startSize=8;curved=0;rounded=0;" edge="1" parent="1">
          <mxGeometry relative="1" as="geometry">
            <mxPoint x="60" y="540" as="sourcePoint" />
            <mxPoint x="180" y="540" as="targetPoint" />
          </mxGeometry>
        </mxCell>
        <mxCell id="MqhoSPaMfqONEa-T_K4_-40" value="get task" style="text;html=1;align=center;verticalAlign=middle;resizable=0;points=[];autosize=1;strokeColor=none;fillColor=none;" vertex="1" parent="1">
          <mxGeometry x="85" y="540" width="70" height="30" as="geometry" />
        </mxCell>
        <mxCell id="MqhoSPaMfqONEa-T_K4_-42" value="validate token" style="html=1;verticalAlign=bottom;startArrow=oval;endArrow=block;startSize=8;curved=0;rounded=0;entryX=0;entryY=0;entryDx=0;entryDy=5;" edge="1" target="MqhoSPaMfqONEa-T_K4_-41" parent="1">
          <mxGeometry relative="1" as="geometry">
            <mxPoint x="200" y="565" as="sourcePoint" />
          </mxGeometry>
        </mxCell>
        <mxCell id="MqhoSPaMfqONEa-T_K4_-45" value="return user info" style="html=1;verticalAlign=bottom;endArrow=open;dashed=1;endSize=8;curved=0;rounded=0;" edge="1" parent="1" source="MqhoSPaMfqONEa-T_K4_-41">
          <mxGeometry relative="1" as="geometry">
            <mxPoint x="450" y="450" as="sourcePoint" />
            <mxPoint x="200" y="600" as="targetPoint" />
          </mxGeometry>
        </mxCell>
        <mxCell id="MqhoSPaMfqONEa-T_K4_-50" value="get task" style="html=1;verticalAlign=bottom;startArrow=oval;endArrow=block;startSize=8;curved=0;rounded=0;entryX=0;entryY=0;entryDx=0;entryDy=5;" edge="1" target="MqhoSPaMfqONEa-T_K4_-49" parent="1">
          <mxGeometry relative="1" as="geometry">
            <mxPoint x="200" y="705" as="sourcePoint" />
          </mxGeometry>
        </mxCell>
        <mxCell id="MqhoSPaMfqONEa-T_K4_-57" value="check if task exists" style="html=1;verticalAlign=bottom;startArrow=oval;endArrow=block;startSize=8;curved=0;rounded=0;entryX=0;entryY=0;entryDx=0;entryDy=5;" edge="1" target="MqhoSPaMfqONEa-T_K4_-56" parent="1" source="MqhoSPaMfqONEa-T_K4_-49">
          <mxGeometry relative="1" as="geometry">
            <mxPoint x="530" y="715" as="sourcePoint" />
          </mxGeometry>
        </mxCell>
        <mxCell id="MqhoSPaMfqONEa-T_K4_-58" value="task found" style="html=1;verticalAlign=bottom;endArrow=open;dashed=1;endSize=8;curved=0;rounded=0;" edge="1" parent="1">
          <mxGeometry relative="1" as="geometry">
            <mxPoint x="650" y="760" as="sourcePoint" />
            <mxPoint x="520" y="760" as="targetPoint" />
          </mxGeometry>
        </mxCell>
        <mxCell id="MqhoSPaMfqONEa-T_K4_-60" value="return task" style="html=1;verticalAlign=bottom;endArrow=open;dashed=1;endSize=8;curved=0;rounded=0;" edge="1" parent="1">
          <mxGeometry relative="1" as="geometry">
            <mxPoint x="510" y="760" as="sourcePoint" />
            <mxPoint x="200" y="760" as="targetPoint" />
          </mxGeometry>
        </mxCell>
        <mxCell id="MqhoSPaMfqONEa-T_K4_-61" value="return task" style="html=1;verticalAlign=bottom;endArrow=open;dashed=1;endSize=8;curved=0;rounded=0;" edge="1" parent="1">
          <mxGeometry relative="1" as="geometry">
            <mxPoint x="180" y="760" as="sourcePoint" />
            <mxPoint x="60" y="760" as="targetPoint" />
          </mxGeometry>
        </mxCell>
        <mxCell id="MqhoSPaMfqONEa-T_K4_-63" value="send notification (for update/create)" style="html=1;verticalAlign=bottom;startArrow=oval;endArrow=block;startSize=8;curved=0;rounded=0;entryX=0;entryY=0;entryDx=0;entryDy=5;" edge="1" target="MqhoSPaMfqONEa-T_K4_-62" parent="1">
          <mxGeometry relative="1" as="geometry">
            <mxPoint x="520" y="805" as="sourcePoint" />
          </mxGeometry>
        </mxCell>
        <mxCell id="MqhoSPaMfqONEa-T_K4_-67" value="User" style="text;html=1;align=center;verticalAlign=middle;resizable=0;points=[];autosize=1;strokeColor=none;fillColor=none;" vertex="1" parent="1">
          <mxGeometry x="25" y="248" width="50" height="30" as="geometry" />
        </mxCell>
      </root>
    </mxGraphModel>
  </diagram>
</mxfile>
